<mxfile host="app.diagrams.net" agent="Mozilla/5.0 (Windows NT 10.0; Win64; x64) AppleWebKit/537.36 (KHTML, like Gecko) Chrome/128.0.0.0 Safari/537.36" version="24.7.8">
  <diagram name="Page-1" id="khPCjBVJ-7Et0EiRvyvZ">
    <mxGraphModel dx="2963" dy="1580" grid="1" gridSize="10" guides="1" tooltips="1" connect="1" arrows="1" fold="1" page="1" pageScale="1" pageWidth="850" pageHeight="1100" math="0" shadow="0">
      <root>
        <mxCell id="0" />
        <mxCell id="1" parent="0" />
        <mxCell id="ouQW3pGmZeGJbq3zhIi6-48" style="edgeStyle=orthogonalEdgeStyle;rounded=0;orthogonalLoop=1;jettySize=auto;html=1;exitX=0.5;exitY=1;exitDx=0;exitDy=0;entryX=0.5;entryY=0;entryDx=0;entryDy=0;" edge="1" parent="1" source="ouQW3pGmZeGJbq3zhIi6-1" target="ouQW3pGmZeGJbq3zhIi6-2">
          <mxGeometry relative="1" as="geometry" />
        </mxCell>
        <mxCell id="ouQW3pGmZeGJbq3zhIi6-1" value="Start" style="ellipse;whiteSpace=wrap;html=1;fillColor=#d5e8d4;strokeColor=#82b366;" vertex="1" parent="1">
          <mxGeometry width="120" height="80" as="geometry" />
        </mxCell>
        <mxCell id="ouQW3pGmZeGJbq3zhIi6-49" value="" style="edgeStyle=orthogonalEdgeStyle;rounded=0;orthogonalLoop=1;jettySize=auto;html=1;" edge="1" parent="1" source="ouQW3pGmZeGJbq3zhIi6-2" target="ouQW3pGmZeGJbq3zhIi6-3">
          <mxGeometry relative="1" as="geometry" />
        </mxCell>
        <mxCell id="ouQW3pGmZeGJbq3zhIi6-2" value="Leave House" style="shape=process;whiteSpace=wrap;html=1;backgroundOutline=1;" vertex="1" parent="1">
          <mxGeometry y="120" width="120" height="60" as="geometry" />
        </mxCell>
        <mxCell id="ouQW3pGmZeGJbq3zhIi6-50" value="" style="edgeStyle=orthogonalEdgeStyle;rounded=0;orthogonalLoop=1;jettySize=auto;html=1;" edge="1" parent="1" source="ouQW3pGmZeGJbq3zhIi6-3" target="ouQW3pGmZeGJbq3zhIi6-4">
          <mxGeometry relative="1" as="geometry" />
        </mxCell>
        <mxCell id="ouQW3pGmZeGJbq3zhIi6-3" value="Walk to bus stop" style="rounded=1;whiteSpace=wrap;html=1;" vertex="1" parent="1">
          <mxGeometry y="220" width="120" height="60" as="geometry" />
        </mxCell>
        <mxCell id="ouQW3pGmZeGJbq3zhIi6-51" value="" style="edgeStyle=orthogonalEdgeStyle;rounded=0;orthogonalLoop=1;jettySize=auto;html=1;" edge="1" parent="1" source="ouQW3pGmZeGJbq3zhIi6-4" target="ouQW3pGmZeGJbq3zhIi6-5">
          <mxGeometry relative="1" as="geometry" />
        </mxCell>
        <mxCell id="ouQW3pGmZeGJbq3zhIi6-4" value="Wait for bus" style="rounded=1;whiteSpace=wrap;html=1;" vertex="1" parent="1">
          <mxGeometry y="320" width="120" height="60" as="geometry" />
        </mxCell>
        <mxCell id="ouQW3pGmZeGJbq3zhIi6-52" value="" style="edgeStyle=orthogonalEdgeStyle;rounded=0;orthogonalLoop=1;jettySize=auto;html=1;" edge="1" parent="1" source="ouQW3pGmZeGJbq3zhIi6-5" target="ouQW3pGmZeGJbq3zhIi6-6">
          <mxGeometry relative="1" as="geometry" />
        </mxCell>
        <mxCell id="ouQW3pGmZeGJbq3zhIi6-5" value="Get on bus" style="rounded=1;whiteSpace=wrap;html=1;" vertex="1" parent="1">
          <mxGeometry y="420" width="120" height="60" as="geometry" />
        </mxCell>
        <mxCell id="ouQW3pGmZeGJbq3zhIi6-53" value="" style="edgeStyle=orthogonalEdgeStyle;rounded=0;orthogonalLoop=1;jettySize=auto;html=1;" edge="1" parent="1" source="ouQW3pGmZeGJbq3zhIi6-6" target="ouQW3pGmZeGJbq3zhIi6-7">
          <mxGeometry relative="1" as="geometry" />
        </mxCell>
        <mxCell id="ouQW3pGmZeGJbq3zhIi6-6" value="Pay fare" style="rounded=1;whiteSpace=wrap;html=1;" vertex="1" parent="1">
          <mxGeometry y="520" width="120" height="60" as="geometry" />
        </mxCell>
        <mxCell id="ouQW3pGmZeGJbq3zhIi6-54" value="" style="edgeStyle=orthogonalEdgeStyle;rounded=0;orthogonalLoop=1;jettySize=auto;html=1;" edge="1" parent="1" source="ouQW3pGmZeGJbq3zhIi6-7" target="ouQW3pGmZeGJbq3zhIi6-8">
          <mxGeometry relative="1" as="geometry" />
        </mxCell>
        <mxCell id="ouQW3pGmZeGJbq3zhIi6-7" value="Wait for stop" style="rounded=1;whiteSpace=wrap;html=1;" vertex="1" parent="1">
          <mxGeometry y="620" width="120" height="60" as="geometry" />
        </mxCell>
        <mxCell id="ouQW3pGmZeGJbq3zhIi6-75" value="" style="edgeStyle=orthogonalEdgeStyle;rounded=0;orthogonalLoop=1;jettySize=auto;html=1;" edge="1" parent="1" source="ouQW3pGmZeGJbq3zhIi6-8" target="ouQW3pGmZeGJbq3zhIi6-72">
          <mxGeometry relative="1" as="geometry" />
        </mxCell>
        <mxCell id="ouQW3pGmZeGJbq3zhIi6-8" value="Get off bus" style="rounded=1;whiteSpace=wrap;html=1;" vertex="1" parent="1">
          <mxGeometry y="720" width="120" height="60" as="geometry" />
        </mxCell>
        <mxCell id="ouQW3pGmZeGJbq3zhIi6-76" value="" style="edgeStyle=orthogonalEdgeStyle;rounded=0;orthogonalLoop=1;jettySize=auto;html=1;" edge="1" parent="1" source="ouQW3pGmZeGJbq3zhIi6-11" target="ouQW3pGmZeGJbq3zhIi6-12">
          <mxGeometry relative="1" as="geometry" />
        </mxCell>
        <mxCell id="ouQW3pGmZeGJbq3zhIi6-11" value="Get produce" style="shape=process;whiteSpace=wrap;html=1;backgroundOutline=1;" vertex="1" parent="1">
          <mxGeometry y="920" width="120" height="60" as="geometry" />
        </mxCell>
        <mxCell id="ouQW3pGmZeGJbq3zhIi6-77" style="edgeStyle=orthogonalEdgeStyle;rounded=0;orthogonalLoop=1;jettySize=auto;html=1;exitX=1;exitY=0.5;exitDx=0;exitDy=0;entryX=0.5;entryY=0;entryDx=0;entryDy=0;" edge="1" parent="1" source="ouQW3pGmZeGJbq3zhIi6-12" target="ouQW3pGmZeGJbq3zhIi6-13">
          <mxGeometry relative="1" as="geometry" />
        </mxCell>
        <mxCell id="ouQW3pGmZeGJbq3zhIi6-12" value="Get 5 ramen packs" style="rounded=1;whiteSpace=wrap;html=1;" vertex="1" parent="1">
          <mxGeometry y="1020" width="120" height="60" as="geometry" />
        </mxCell>
        <mxCell id="ouQW3pGmZeGJbq3zhIi6-60" value="" style="edgeStyle=orthogonalEdgeStyle;rounded=0;orthogonalLoop=1;jettySize=auto;html=1;" edge="1" parent="1" source="ouQW3pGmZeGJbq3zhIi6-13" target="ouQW3pGmZeGJbq3zhIi6-14">
          <mxGeometry relative="1" as="geometry" />
        </mxCell>
        <mxCell id="ouQW3pGmZeGJbq3zhIi6-13" value="Get cookies" style="rounded=1;whiteSpace=wrap;html=1;" vertex="1" parent="1">
          <mxGeometry x="200" y="120" width="120" height="60" as="geometry" />
        </mxCell>
        <mxCell id="ouQW3pGmZeGJbq3zhIi6-61" value="" style="edgeStyle=orthogonalEdgeStyle;rounded=0;orthogonalLoop=1;jettySize=auto;html=1;" edge="1" parent="1" source="ouQW3pGmZeGJbq3zhIi6-14" target="ouQW3pGmZeGJbq3zhIi6-15">
          <mxGeometry relative="1" as="geometry" />
        </mxCell>
        <mxCell id="ouQW3pGmZeGJbq3zhIi6-14" value="Go to check out" style="rounded=1;whiteSpace=wrap;html=1;" vertex="1" parent="1">
          <mxGeometry x="200" y="220" width="120" height="60" as="geometry" />
        </mxCell>
        <mxCell id="ouQW3pGmZeGJbq3zhIi6-62" value="" style="edgeStyle=orthogonalEdgeStyle;rounded=0;orthogonalLoop=1;jettySize=auto;html=1;" edge="1" parent="1" source="ouQW3pGmZeGJbq3zhIi6-15" target="ouQW3pGmZeGJbq3zhIi6-16">
          <mxGeometry relative="1" as="geometry" />
        </mxCell>
        <mxCell id="ouQW3pGmZeGJbq3zhIi6-15" value="Wait in line" style="rounded=1;whiteSpace=wrap;html=1;" vertex="1" parent="1">
          <mxGeometry x="200" y="320" width="120" height="60" as="geometry" />
        </mxCell>
        <mxCell id="ouQW3pGmZeGJbq3zhIi6-63" value="" style="edgeStyle=orthogonalEdgeStyle;rounded=0;orthogonalLoop=1;jettySize=auto;html=1;" edge="1" parent="1" source="ouQW3pGmZeGJbq3zhIi6-16" target="ouQW3pGmZeGJbq3zhIi6-17">
          <mxGeometry relative="1" as="geometry" />
        </mxCell>
        <mxCell id="ouQW3pGmZeGJbq3zhIi6-16" value="Wait for cashier to scan items" style="rounded=1;whiteSpace=wrap;html=1;" vertex="1" parent="1">
          <mxGeometry x="200" y="420" width="120" height="60" as="geometry" />
        </mxCell>
        <mxCell id="ouQW3pGmZeGJbq3zhIi6-64" value="" style="edgeStyle=orthogonalEdgeStyle;rounded=0;orthogonalLoop=1;jettySize=auto;html=1;" edge="1" parent="1" source="ouQW3pGmZeGJbq3zhIi6-17" target="ouQW3pGmZeGJbq3zhIi6-18">
          <mxGeometry relative="1" as="geometry" />
        </mxCell>
        <mxCell id="ouQW3pGmZeGJbq3zhIi6-17" value="Pay for items" style="rounded=1;whiteSpace=wrap;html=1;" vertex="1" parent="1">
          <mxGeometry x="200" y="520" width="120" height="60" as="geometry" />
        </mxCell>
        <mxCell id="ouQW3pGmZeGJbq3zhIi6-65" value="" style="edgeStyle=orthogonalEdgeStyle;rounded=0;orthogonalLoop=1;jettySize=auto;html=1;" edge="1" parent="1" source="ouQW3pGmZeGJbq3zhIi6-18" target="ouQW3pGmZeGJbq3zhIi6-19">
          <mxGeometry relative="1" as="geometry" />
        </mxCell>
        <mxCell id="ouQW3pGmZeGJbq3zhIi6-18" value="Bag items" style="rounded=1;whiteSpace=wrap;html=1;" vertex="1" parent="1">
          <mxGeometry x="200" y="620" width="120" height="60" as="geometry" />
        </mxCell>
        <mxCell id="ouQW3pGmZeGJbq3zhIi6-66" value="" style="edgeStyle=orthogonalEdgeStyle;rounded=0;orthogonalLoop=1;jettySize=auto;html=1;" edge="1" parent="1" source="ouQW3pGmZeGJbq3zhIi6-19" target="ouQW3pGmZeGJbq3zhIi6-20">
          <mxGeometry relative="1" as="geometry" />
        </mxCell>
        <mxCell id="ouQW3pGmZeGJbq3zhIi6-19" value="Exit Store" style="rounded=1;whiteSpace=wrap;html=1;" vertex="1" parent="1">
          <mxGeometry x="200" y="720" width="120" height="60" as="geometry" />
        </mxCell>
        <mxCell id="ouQW3pGmZeGJbq3zhIi6-67" value="" style="edgeStyle=orthogonalEdgeStyle;rounded=0;orthogonalLoop=1;jettySize=auto;html=1;" edge="1" parent="1" source="ouQW3pGmZeGJbq3zhIi6-20" target="ouQW3pGmZeGJbq3zhIi6-21">
          <mxGeometry relative="1" as="geometry" />
        </mxCell>
        <mxCell id="ouQW3pGmZeGJbq3zhIi6-20" value="Go to the bus stop" style="rounded=1;whiteSpace=wrap;html=1;" vertex="1" parent="1">
          <mxGeometry x="200" y="820" width="120" height="60" as="geometry" />
        </mxCell>
        <mxCell id="ouQW3pGmZeGJbq3zhIi6-68" style="edgeStyle=orthogonalEdgeStyle;rounded=0;orthogonalLoop=1;jettySize=auto;html=1;exitX=1;exitY=0.5;exitDx=0;exitDy=0;entryX=0.5;entryY=0;entryDx=0;entryDy=0;" edge="1" parent="1" source="ouQW3pGmZeGJbq3zhIi6-21" target="ouQW3pGmZeGJbq3zhIi6-22">
          <mxGeometry relative="1" as="geometry" />
        </mxCell>
        <mxCell id="ouQW3pGmZeGJbq3zhIi6-21" value="Wait for the bus" style="rounded=1;whiteSpace=wrap;html=1;" vertex="1" parent="1">
          <mxGeometry x="200" y="910" width="120" height="60" as="geometry" />
        </mxCell>
        <mxCell id="ouQW3pGmZeGJbq3zhIi6-69" value="" style="edgeStyle=orthogonalEdgeStyle;rounded=0;orthogonalLoop=1;jettySize=auto;html=1;" edge="1" parent="1" source="ouQW3pGmZeGJbq3zhIi6-22" target="ouQW3pGmZeGJbq3zhIi6-23">
          <mxGeometry relative="1" as="geometry" />
        </mxCell>
        <mxCell id="ouQW3pGmZeGJbq3zhIi6-22" value="Get on the bus" style="rounded=1;whiteSpace=wrap;html=1;" vertex="1" parent="1">
          <mxGeometry x="400" y="120" width="120" height="60" as="geometry" />
        </mxCell>
        <mxCell id="ouQW3pGmZeGJbq3zhIi6-70" value="" style="edgeStyle=orthogonalEdgeStyle;rounded=0;orthogonalLoop=1;jettySize=auto;html=1;" edge="1" parent="1" source="ouQW3pGmZeGJbq3zhIi6-23" target="ouQW3pGmZeGJbq3zhIi6-24">
          <mxGeometry relative="1" as="geometry" />
        </mxCell>
        <mxCell id="ouQW3pGmZeGJbq3zhIi6-23" value="Pay fare" style="rounded=1;whiteSpace=wrap;html=1;" vertex="1" parent="1">
          <mxGeometry x="400" y="220" width="120" height="60" as="geometry" />
        </mxCell>
        <mxCell id="ouQW3pGmZeGJbq3zhIi6-71" value="" style="edgeStyle=orthogonalEdgeStyle;rounded=0;orthogonalLoop=1;jettySize=auto;html=1;" edge="1" parent="1" source="ouQW3pGmZeGJbq3zhIi6-24" target="ouQW3pGmZeGJbq3zhIi6-26">
          <mxGeometry relative="1" as="geometry" />
        </mxCell>
        <mxCell id="ouQW3pGmZeGJbq3zhIi6-24" value="Wait for stop" style="rounded=1;whiteSpace=wrap;html=1;" vertex="1" parent="1">
          <mxGeometry x="400" y="320" width="120" height="60" as="geometry" />
        </mxCell>
        <mxCell id="ouQW3pGmZeGJbq3zhIi6-87" value="" style="edgeStyle=orthogonalEdgeStyle;rounded=0;orthogonalLoop=1;jettySize=auto;html=1;" edge="1" parent="1" source="ouQW3pGmZeGJbq3zhIi6-26" target="ouQW3pGmZeGJbq3zhIi6-86">
          <mxGeometry relative="1" as="geometry" />
        </mxCell>
        <mxCell id="ouQW3pGmZeGJbq3zhIi6-26" value="Walk home" style="shape=process;whiteSpace=wrap;html=1;backgroundOutline=1;" vertex="1" parent="1">
          <mxGeometry x="400" y="420" width="120" height="60" as="geometry" />
        </mxCell>
        <mxCell id="ouQW3pGmZeGJbq3zhIi6-27" value="Leave House" style="swimlane;whiteSpace=wrap;html=1;" vertex="1" parent="1">
          <mxGeometry x="600" y="120" width="200" height="460" as="geometry" />
        </mxCell>
        <mxCell id="ouQW3pGmZeGJbq3zhIi6-40" style="edgeStyle=orthogonalEdgeStyle;rounded=0;orthogonalLoop=1;jettySize=auto;html=1;exitX=0.5;exitY=1;exitDx=0;exitDy=0;entryX=0.5;entryY=0;entryDx=0;entryDy=0;" edge="1" parent="ouQW3pGmZeGJbq3zhIi6-27" source="ouQW3pGmZeGJbq3zhIi6-28" target="ouQW3pGmZeGJbq3zhIi6-29">
          <mxGeometry relative="1" as="geometry" />
        </mxCell>
        <mxCell id="ouQW3pGmZeGJbq3zhIi6-28" value="Start" style="ellipse;whiteSpace=wrap;html=1;fillColor=#d5e8d4;strokeColor=#82b366;" vertex="1" parent="ouQW3pGmZeGJbq3zhIi6-27">
          <mxGeometry x="40" y="30" width="120" height="80" as="geometry" />
        </mxCell>
        <mxCell id="ouQW3pGmZeGJbq3zhIi6-41" style="edgeStyle=orthogonalEdgeStyle;rounded=0;orthogonalLoop=1;jettySize=auto;html=1;exitX=0.5;exitY=1;exitDx=0;exitDy=0;entryX=0.5;entryY=0;entryDx=0;entryDy=0;" edge="1" parent="ouQW3pGmZeGJbq3zhIi6-27" source="ouQW3pGmZeGJbq3zhIi6-29" target="ouQW3pGmZeGJbq3zhIi6-30">
          <mxGeometry relative="1" as="geometry" />
        </mxCell>
        <mxCell id="ouQW3pGmZeGJbq3zhIi6-29" value="Exit house" style="rounded=1;whiteSpace=wrap;html=1;" vertex="1" parent="ouQW3pGmZeGJbq3zhIi6-27">
          <mxGeometry x="40" y="130" width="120" height="60" as="geometry" />
        </mxCell>
        <mxCell id="ouQW3pGmZeGJbq3zhIi6-42" style="edgeStyle=orthogonalEdgeStyle;rounded=0;orthogonalLoop=1;jettySize=auto;html=1;exitX=0.5;exitY=1;exitDx=0;exitDy=0;" edge="1" parent="ouQW3pGmZeGJbq3zhIi6-27" source="ouQW3pGmZeGJbq3zhIi6-30" target="ouQW3pGmZeGJbq3zhIi6-31">
          <mxGeometry relative="1" as="geometry" />
        </mxCell>
        <mxCell id="ouQW3pGmZeGJbq3zhIi6-30" value="Close door" style="rounded=1;whiteSpace=wrap;html=1;" vertex="1" parent="ouQW3pGmZeGJbq3zhIi6-27">
          <mxGeometry x="40" y="210" width="120" height="60" as="geometry" />
        </mxCell>
        <mxCell id="ouQW3pGmZeGJbq3zhIi6-43" style="edgeStyle=orthogonalEdgeStyle;rounded=0;orthogonalLoop=1;jettySize=auto;html=1;exitX=0.5;exitY=1;exitDx=0;exitDy=0;entryX=0.5;entryY=0;entryDx=0;entryDy=0;" edge="1" parent="ouQW3pGmZeGJbq3zhIi6-27" source="ouQW3pGmZeGJbq3zhIi6-31" target="ouQW3pGmZeGJbq3zhIi6-33">
          <mxGeometry relative="1" as="geometry" />
        </mxCell>
        <mxCell id="ouQW3pGmZeGJbq3zhIi6-31" value="Lock door" style="rounded=1;whiteSpace=wrap;html=1;" vertex="1" parent="ouQW3pGmZeGJbq3zhIi6-27">
          <mxGeometry x="40" y="290" width="120" height="60" as="geometry" />
        </mxCell>
        <mxCell id="ouQW3pGmZeGJbq3zhIi6-33" value="End" style="ellipse;whiteSpace=wrap;html=1;fillColor=#f8cecc;strokeColor=#b85450;" vertex="1" parent="ouQW3pGmZeGJbq3zhIi6-27">
          <mxGeometry x="40" y="370" width="120" height="80" as="geometry" />
        </mxCell>
        <mxCell id="ouQW3pGmZeGJbq3zhIi6-34" value="Get Produce" style="swimlane;whiteSpace=wrap;html=1;" vertex="1" parent="1">
          <mxGeometry x="600" y="600" width="200" height="460" as="geometry" />
        </mxCell>
        <mxCell id="ouQW3pGmZeGJbq3zhIi6-44" style="edgeStyle=orthogonalEdgeStyle;rounded=0;orthogonalLoop=1;jettySize=auto;html=1;exitX=0.5;exitY=1;exitDx=0;exitDy=0;entryX=0.5;entryY=0;entryDx=0;entryDy=0;" edge="1" parent="ouQW3pGmZeGJbq3zhIi6-34" source="ouQW3pGmZeGJbq3zhIi6-35" target="ouQW3pGmZeGJbq3zhIi6-36">
          <mxGeometry relative="1" as="geometry" />
        </mxCell>
        <mxCell id="ouQW3pGmZeGJbq3zhIi6-35" value="Start" style="ellipse;whiteSpace=wrap;html=1;fillColor=#d5e8d4;strokeColor=#82b366;" vertex="1" parent="ouQW3pGmZeGJbq3zhIi6-34">
          <mxGeometry x="40" y="30" width="120" height="80" as="geometry" />
        </mxCell>
        <mxCell id="ouQW3pGmZeGJbq3zhIi6-45" style="edgeStyle=orthogonalEdgeStyle;rounded=0;orthogonalLoop=1;jettySize=auto;html=1;exitX=0.5;exitY=1;exitDx=0;exitDy=0;" edge="1" parent="ouQW3pGmZeGJbq3zhIi6-34" source="ouQW3pGmZeGJbq3zhIi6-36" target="ouQW3pGmZeGJbq3zhIi6-37">
          <mxGeometry relative="1" as="geometry" />
        </mxCell>
        <mxCell id="ouQW3pGmZeGJbq3zhIi6-36" value="Grab Carrots" style="rounded=1;whiteSpace=wrap;html=1;" vertex="1" parent="ouQW3pGmZeGJbq3zhIi6-34">
          <mxGeometry x="40" y="130" width="120" height="60" as="geometry" />
        </mxCell>
        <mxCell id="ouQW3pGmZeGJbq3zhIi6-46" style="edgeStyle=orthogonalEdgeStyle;rounded=0;orthogonalLoop=1;jettySize=auto;html=1;exitX=0.5;exitY=1;exitDx=0;exitDy=0;entryX=0.5;entryY=0;entryDx=0;entryDy=0;" edge="1" parent="ouQW3pGmZeGJbq3zhIi6-34" source="ouQW3pGmZeGJbq3zhIi6-37" target="ouQW3pGmZeGJbq3zhIi6-38">
          <mxGeometry relative="1" as="geometry" />
        </mxCell>
        <mxCell id="ouQW3pGmZeGJbq3zhIi6-37" value="Grab Bananas" style="rounded=1;whiteSpace=wrap;html=1;" vertex="1" parent="ouQW3pGmZeGJbq3zhIi6-34">
          <mxGeometry x="40" y="210" width="120" height="60" as="geometry" />
        </mxCell>
        <mxCell id="ouQW3pGmZeGJbq3zhIi6-47" style="edgeStyle=orthogonalEdgeStyle;rounded=0;orthogonalLoop=1;jettySize=auto;html=1;exitX=0.5;exitY=1;exitDx=0;exitDy=0;entryX=0.5;entryY=0;entryDx=0;entryDy=0;" edge="1" parent="ouQW3pGmZeGJbq3zhIi6-34" source="ouQW3pGmZeGJbq3zhIi6-38" target="ouQW3pGmZeGJbq3zhIi6-39">
          <mxGeometry relative="1" as="geometry" />
        </mxCell>
        <mxCell id="ouQW3pGmZeGJbq3zhIi6-38" value="Grab green onions" style="rounded=1;whiteSpace=wrap;html=1;" vertex="1" parent="ouQW3pGmZeGJbq3zhIi6-34">
          <mxGeometry x="40" y="290" width="120" height="60" as="geometry" />
        </mxCell>
        <mxCell id="ouQW3pGmZeGJbq3zhIi6-39" value="End" style="ellipse;whiteSpace=wrap;html=1;fillColor=#f8cecc;strokeColor=#b85450;" vertex="1" parent="ouQW3pGmZeGJbq3zhIi6-34">
          <mxGeometry x="40" y="370" width="120" height="80" as="geometry" />
        </mxCell>
        <mxCell id="ouQW3pGmZeGJbq3zhIi6-78" value="" style="edgeStyle=orthogonalEdgeStyle;rounded=0;orthogonalLoop=1;jettySize=auto;html=1;" edge="1" parent="1" source="ouQW3pGmZeGJbq3zhIi6-72" target="ouQW3pGmZeGJbq3zhIi6-11">
          <mxGeometry relative="1" as="geometry" />
        </mxCell>
        <mxCell id="ouQW3pGmZeGJbq3zhIi6-72" value="Walk to store" style="shape=process;whiteSpace=wrap;html=1;backgroundOutline=1;" vertex="1" parent="1">
          <mxGeometry y="820" width="120" height="60" as="geometry" />
        </mxCell>
        <mxCell id="ouQW3pGmZeGJbq3zhIi6-79" value="Walk to store" style="swimlane;whiteSpace=wrap;html=1;" vertex="1" parent="1">
          <mxGeometry x="600" y="1080" width="200" height="550" as="geometry" />
        </mxCell>
        <mxCell id="ouQW3pGmZeGJbq3zhIi6-95" value="" style="edgeStyle=orthogonalEdgeStyle;rounded=0;orthogonalLoop=1;jettySize=auto;html=1;" edge="1" parent="ouQW3pGmZeGJbq3zhIi6-79" source="ouQW3pGmZeGJbq3zhIi6-80" target="ouQW3pGmZeGJbq3zhIi6-85">
          <mxGeometry relative="1" as="geometry" />
        </mxCell>
        <mxCell id="ouQW3pGmZeGJbq3zhIi6-80" value="Start" style="ellipse;whiteSpace=wrap;html=1;fillColor=#d5e8d4;strokeColor=#82b366;" vertex="1" parent="ouQW3pGmZeGJbq3zhIi6-79">
          <mxGeometry x="40" y="40" width="120" height="80" as="geometry" />
        </mxCell>
        <mxCell id="ouQW3pGmZeGJbq3zhIi6-81" value="End" style="ellipse;whiteSpace=wrap;html=1;fillColor=#f8cecc;strokeColor=#b85450;" vertex="1" parent="ouQW3pGmZeGJbq3zhIi6-79">
          <mxGeometry x="40" y="460" width="120" height="80" as="geometry" />
        </mxCell>
        <mxCell id="ouQW3pGmZeGJbq3zhIi6-100" style="edgeStyle=orthogonalEdgeStyle;rounded=0;orthogonalLoop=1;jettySize=auto;html=1;exitX=0.5;exitY=1;exitDx=0;exitDy=0;entryX=0.5;entryY=0;entryDx=0;entryDy=0;" edge="1" parent="ouQW3pGmZeGJbq3zhIi6-79" source="ouQW3pGmZeGJbq3zhIi6-82" target="ouQW3pGmZeGJbq3zhIi6-83">
          <mxGeometry relative="1" as="geometry" />
        </mxCell>
        <mxCell id="ouQW3pGmZeGJbq3zhIi6-82" value="Enter the store" style="rounded=1;whiteSpace=wrap;html=1;" vertex="1" parent="ouQW3pGmZeGJbq3zhIi6-79">
          <mxGeometry x="40" y="300" width="120" height="60" as="geometry" />
        </mxCell>
        <mxCell id="ouQW3pGmZeGJbq3zhIi6-111" value="" style="edgeStyle=orthogonalEdgeStyle;rounded=0;orthogonalLoop=1;jettySize=auto;html=1;" edge="1" parent="ouQW3pGmZeGJbq3zhIi6-79" source="ouQW3pGmZeGJbq3zhIi6-83" target="ouQW3pGmZeGJbq3zhIi6-81">
          <mxGeometry relative="1" as="geometry" />
        </mxCell>
        <mxCell id="ouQW3pGmZeGJbq3zhIi6-83" value="Grab a shopping cart" style="rounded=1;whiteSpace=wrap;html=1;" vertex="1" parent="ouQW3pGmZeGJbq3zhIi6-79">
          <mxGeometry x="40" y="380" width="120" height="60" as="geometry" />
        </mxCell>
        <mxCell id="ouQW3pGmZeGJbq3zhIi6-84" value="Leave the bus stop" style="rounded=1;whiteSpace=wrap;html=1;" vertex="1" parent="ouQW3pGmZeGJbq3zhIi6-79">
          <mxGeometry x="40" y="140" width="120" height="60" as="geometry" />
        </mxCell>
        <mxCell id="ouQW3pGmZeGJbq3zhIi6-99" style="edgeStyle=orthogonalEdgeStyle;rounded=0;orthogonalLoop=1;jettySize=auto;html=1;exitX=0.5;exitY=1;exitDx=0;exitDy=0;entryX=0.5;entryY=0;entryDx=0;entryDy=0;" edge="1" parent="ouQW3pGmZeGJbq3zhIi6-79" source="ouQW3pGmZeGJbq3zhIi6-85" target="ouQW3pGmZeGJbq3zhIi6-82">
          <mxGeometry relative="1" as="geometry" />
        </mxCell>
        <mxCell id="ouQW3pGmZeGJbq3zhIi6-85" value="Walk to the store" style="rounded=1;whiteSpace=wrap;html=1;" vertex="1" parent="ouQW3pGmZeGJbq3zhIi6-79">
          <mxGeometry x="40" y="220" width="120" height="60" as="geometry" />
        </mxCell>
        <mxCell id="ouQW3pGmZeGJbq3zhIi6-86" value="End" style="ellipse;whiteSpace=wrap;html=1;fillColor=#f8cecc;strokeColor=#b85450;" vertex="1" parent="1">
          <mxGeometry x="400" y="520" width="120" height="80" as="geometry" />
        </mxCell>
        <mxCell id="ouQW3pGmZeGJbq3zhIi6-101" value="Walk Home" style="swimlane;whiteSpace=wrap;html=1;" vertex="1" parent="1">
          <mxGeometry x="380" y="620" width="200" height="630" as="geometry" />
        </mxCell>
        <mxCell id="ouQW3pGmZeGJbq3zhIi6-102" value="" style="edgeStyle=orthogonalEdgeStyle;rounded=0;orthogonalLoop=1;jettySize=auto;html=1;" edge="1" parent="ouQW3pGmZeGJbq3zhIi6-101" source="ouQW3pGmZeGJbq3zhIi6-103" target="ouQW3pGmZeGJbq3zhIi6-110">
          <mxGeometry relative="1" as="geometry" />
        </mxCell>
        <mxCell id="ouQW3pGmZeGJbq3zhIi6-103" value="Start" style="ellipse;whiteSpace=wrap;html=1;fillColor=#d5e8d4;strokeColor=#82b366;" vertex="1" parent="ouQW3pGmZeGJbq3zhIi6-101">
          <mxGeometry x="40" y="40" width="120" height="80" as="geometry" />
        </mxCell>
        <mxCell id="ouQW3pGmZeGJbq3zhIi6-105" style="edgeStyle=orthogonalEdgeStyle;rounded=0;orthogonalLoop=1;jettySize=auto;html=1;exitX=0.5;exitY=1;exitDx=0;exitDy=0;entryX=0.5;entryY=0;entryDx=0;entryDy=0;" edge="1" parent="ouQW3pGmZeGJbq3zhIi6-101" source="ouQW3pGmZeGJbq3zhIi6-106" target="ouQW3pGmZeGJbq3zhIi6-107">
          <mxGeometry relative="1" as="geometry" />
        </mxCell>
        <mxCell id="ouQW3pGmZeGJbq3zhIi6-106" value="Unlock the door" style="rounded=1;whiteSpace=wrap;html=1;" vertex="1" parent="ouQW3pGmZeGJbq3zhIi6-101">
          <mxGeometry x="40" y="300" width="120" height="60" as="geometry" />
        </mxCell>
        <mxCell id="ouQW3pGmZeGJbq3zhIi6-114" value="" style="edgeStyle=orthogonalEdgeStyle;rounded=0;orthogonalLoop=1;jettySize=auto;html=1;" edge="1" parent="ouQW3pGmZeGJbq3zhIi6-101" source="ouQW3pGmZeGJbq3zhIi6-107" target="ouQW3pGmZeGJbq3zhIi6-113">
          <mxGeometry relative="1" as="geometry" />
        </mxCell>
        <mxCell id="ouQW3pGmZeGJbq3zhIi6-107" value="Enter the house" style="rounded=1;whiteSpace=wrap;html=1;" vertex="1" parent="ouQW3pGmZeGJbq3zhIi6-101">
          <mxGeometry x="40" y="380" width="120" height="60" as="geometry" />
        </mxCell>
        <mxCell id="ouQW3pGmZeGJbq3zhIi6-108" value="Leave the bus stop" style="rounded=1;whiteSpace=wrap;html=1;" vertex="1" parent="ouQW3pGmZeGJbq3zhIi6-101">
          <mxGeometry x="40" y="140" width="120" height="60" as="geometry" />
        </mxCell>
        <mxCell id="ouQW3pGmZeGJbq3zhIi6-109" style="edgeStyle=orthogonalEdgeStyle;rounded=0;orthogonalLoop=1;jettySize=auto;html=1;exitX=0.5;exitY=1;exitDx=0;exitDy=0;entryX=0.5;entryY=0;entryDx=0;entryDy=0;" edge="1" parent="ouQW3pGmZeGJbq3zhIi6-101" source="ouQW3pGmZeGJbq3zhIi6-110" target="ouQW3pGmZeGJbq3zhIi6-106">
          <mxGeometry relative="1" as="geometry" />
        </mxCell>
        <mxCell id="ouQW3pGmZeGJbq3zhIi6-110" value="Walk to the house" style="rounded=1;whiteSpace=wrap;html=1;" vertex="1" parent="ouQW3pGmZeGJbq3zhIi6-101">
          <mxGeometry x="40" y="220" width="120" height="60" as="geometry" />
        </mxCell>
        <mxCell id="ouQW3pGmZeGJbq3zhIi6-113" value="Put groceries away" style="rounded=1;whiteSpace=wrap;html=1;" vertex="1" parent="ouQW3pGmZeGJbq3zhIi6-101">
          <mxGeometry x="40" y="460" width="120" height="60" as="geometry" />
        </mxCell>
        <mxCell id="ouQW3pGmZeGJbq3zhIi6-104" value="End" style="ellipse;whiteSpace=wrap;html=1;fillColor=#f8cecc;strokeColor=#b85450;" vertex="1" parent="ouQW3pGmZeGJbq3zhIi6-101">
          <mxGeometry x="40" y="540" width="120" height="80" as="geometry" />
        </mxCell>
        <mxCell id="ouQW3pGmZeGJbq3zhIi6-115" value="" style="edgeStyle=orthogonalEdgeStyle;rounded=0;orthogonalLoop=1;jettySize=auto;html=1;" edge="1" parent="ouQW3pGmZeGJbq3zhIi6-101" source="ouQW3pGmZeGJbq3zhIi6-113" target="ouQW3pGmZeGJbq3zhIi6-104">
          <mxGeometry relative="1" as="geometry" />
        </mxCell>
      </root>
    </mxGraphModel>
  </diagram>
</mxfile>
